# xmcd CD database file
#
# Track frame offsets:
#	150
#	14960
#	32263
#	49833
#	68338
#	83920
#	99325
#	114035
#	131488
#
# Disc length: 1955 seconds
#
# Revision: 2
# Processed by: cddbd v1.5.2PL0 Copyright (c) Steve Scherf et al.
# Submitted via: CDex 1.51
#
DISCID=6407a109
DTITLE=Dolly Parton - Best of Dolly Parton
DYEAR=1987
DGENRE=Country
TTITLE0=Don't Call It Love
TTITLE1=Save the Last Dance for Me
TTITLE2=Real Love
TTITLE3=We Had It All
TTITLE4=Tie Our Love (In A Double Knot)
TTITLE5=Think About Love
TTITLE6=Potential New Boyfriend
TTITLE7=Do I Ever Cross Your Mind
TTITLE8=Tennessee Homesick Blues
EXTD=YEAR: 1987
EXTT0=
EXTT1=
EXTT2=
EXTT3=
EXTT4=
EXTT5=
EXTT6=
EXTT7=
EXTT8=
PLAYORDER=
